<svg width="25" height="24" viewBox="0 0 25 24" fill="none" xmlns="http://www.w3.org/2000/svg">
<path fill-rule="evenodd" clip-rule="evenodd" d="M15.6967 9.68403H19.6617C19.9837 9.68403 20.3017 9.76403 20.5867 9.91603C20.8717 10.068 21.1187 10.29 21.3037 10.561C21.4884 10.8342 21.6065 11.1468 21.6485 11.4738C21.6905 11.8008 21.6553 12.1331 21.5457 12.444L19.1857 19.645C18.8977 20.459 18.7057 21 17.3017 21C15.2297 21 13.0257 20.323 11.1447 19.744C10.6727 19.599 10.2207 19.46 9.79675 19.34H9.68175V9.47802C11.3396 7.84219 12.7655 5.98694 13.9197 3.96403C14.1138 3.59053 14.4326 3.29684 14.8207 3.13403C15.2053 2.97366 15.6347 2.95663 16.0307 3.08603C16.4267 3.21603 16.7667 3.48303 16.9907 3.84303C17.2157 4.20303 17.3107 4.63103 17.2597 5.05403L15.6967 9.68403ZM4.84375 10H7.66675V18C7.66675 18.5305 7.45603 19.0392 7.08096 19.4142C6.70589 19.7893 6.19718 20 5.66675 20C5.13632 20 4.62761 19.7893 4.25253 19.4142C3.87746 19.0392 3.66675 18.5305 3.66675 18V11.177C3.66675 10.527 4.19475 10 4.84375 10Z" fill="white"/>
</svg>
